<?xml version="1.0" standalone="no"?>
<!DOCTYPE svg PUBLIC "-//W3C//DTD SVG 20010904//EN"
 "http://www.w3.org/TR/2001/REC-SVG-20010904/DTD/svg10.dtd">
<svg version="1.0" xmlns="http://www.w3.org/2000/svg"
 width="766.000000pt" height="766.000000pt" viewBox="0 0 766.000000 766.000000"
 preserveAspectRatio="xMidYMid meet">
<metadata>
Created by potrace 1.16, written by Peter Selinger 2001-2019
</metadata>
<g transform="translate(0.000000,766.000000) scale(0.100000,-0.100000)"
fill="#000000" stroke="none">
<path d="M0 3830 l0 -3830 3830 0 3830 0 0 3830 0 3830 -3830 0 -3830 0 0
-3830z m4133 2240 c612 -120 1073 -580 1209 -1204 32 -147 32 -455 0 -602 -32
-150 -66 -246 -132 -379 -314 -630 -1002 -963 -1695 -820 -177 37 -371 120
-540 232 -131 88 -318 273 -404 402 -274 412 -340 893 -186 1357 183 552 685
961 1266 1033 118 15 358 6 482 -19z m-2031 -3683 c3 -166 10 -188 65 -224 33
-22 117 -22 159 0 53 28 64 66 64 231 l0 146 70 0 70 0 0 -165 c0 -184 -7
-215 -62 -273 -46 -46 -122 -72 -216 -72 -132 0 -211 36 -260 119 -26 44 -27
52 -30 219 l-4 172 70 0 70 0 4 -153z m825 1 l153 -153 0 153 0 152 65 0 65 0
0 -250 0 -250 -57 0 -58 0 -162 162 -163 163 0 -163 0 -162 -70 0 -70 0 0 250
0 250 72 0 73 0 152 -152z m847 131 c109 -37 150 -166 79 -250 -15 -17 -42
-38 -61 -46 l-33 -14 58 -67 c98 -112 97 -102 4 -102 l-81 0 -67 80 -68 80
-72 0 -73 0 0 -80 0 -80 -70 0 -70 0 0 251 0 251 208 -5 c132 -3 221 -9 246
-18z m706 -34 l0 -55 -185 0 -185 0 0 -45 0 -45 155 0 155 0 0 -50 0 -50 -155
0 -155 0 0 -45 0 -45 190 0 190 0 0 -55 0 -55 -260 0 -260 0 0 250 0 250 255
0 255 0 0 -55z m580 -186 c69 -133 127 -245 128 -250 2 -5 -31 -9 -72 -9 l-76
0 -23 48 -22 47 -136 3 -135 3 -24 -51 -23 -50 -74 0 c-40 0 -73 3 -73 6 0 3
57 116 126 250 l126 244 76 0 77 0 125 -241z m320 51 l0 -190 165 0 165 0 0
-60 0 -60 -235 0 -235 0 0 250 0 250 70 0 70 0 0 -190z m-1493 -491 c24 -11
43 -24 43 -28 0 -4 -14 -18 -31 -30 -30 -23 -33 -23 -59 -7 -17 10 -50 16 -85
16 -49 0 -60 -4 -86 -29 -55 -55 -29 -140 50 -161 59 -16 141 5 141 35 0 11
-13 15 -55 15 l-55 0 0 35 0 35 100 0 100 0 0 -63 c0 -70 -6 -79 -70 -113 -26
-14 -56 -19 -120 -19 -72 0 -92 4 -129 25 -58 32 -85 79 -85 145 0 87 47 141
140 164 55 14 150 5 201 -20z m-837 -19 l0 -40 -125 0 -125 0 0 -25 0 -25 100
0 100 0 0 -35 0 -35 -100 0 -100 0 0 -30 0 -30 125 0 125 0 0 -35 0 -35 -170
0 -170 0 0 165 0 165 170 0 170 0 0 -40z m252 -57 l98 -98 0 98 0 97 45 0 45
0 0 -165 0 -165 -37 0 c-34 0 -47 9 -145 107 l-108 108 0 -108 0 -107 -45 0
-45 0 0 165 0 165 47 0 c47 0 49 -2 145 -97z m798 -68 l0 -165 -50 0 -50 0 0
158 c0 87 3 162 7 165 3 4 26 7 50 7 l43 0 0 -165z m264 64 l96 -101 0 101 0
101 45 0 45 0 0 -165 0 -165 -37 0 c-34 0 -47 9 -145 107 l-108 108 0 -108 0
-107 -45 0 -45 0 0 165 0 165 49 0 49 0 96 -101z m596 61 l0 -40 -125 0 -125
0 0 -25 0 -25 105 0 105 0 0 -35 0 -35 -106 0 -105 0 3 -27 3 -28 128 -3 127
-3 0 -34 0 -35 -175 0 -175 0 0 165 0 165 170 0 170 0 0 -40z"/>
<path d="M3660 6029 c-855 -106 -1437 -919 -1265 -1765 58 -284 186 -516 404
-735 225 -224 460 -351 763 -411 146 -29 386 -31 528 -5 466 86 856 379 1068
802 186 373 201 814 41 1215 -105 261 -324 521 -575 682 -135 87 -332 165
-503 199 -113 23 -351 32 -461 18z m-10 -567 c-96 -74 -150 -170 -150 -265 0
-93 38 -140 100 -124 20 5 20 -1 20 -459 l0 -463 30 -35 c68 -76 149 -69 288
26 l43 30 -3 406 c-3 398 -3 408 -25 448 -12 23 -37 56 -55 74 l-33 33 61 -5
c33 -3 75 -13 93 -22 l32 -17 69 65 c138 129 281 206 458 245 l43 9 -63 -67
c-107 -113 -165 -213 -194 -336 -15 -67 -19 -361 -7 -673 l6 -181 29 -12 c69
-28 157 14 287 137 l71 66 -16 -54 c-67 -223 -257 -453 -457 -549 l-49 -24
-31 35 c-17 19 -50 57 -74 84 l-44 50 -127 -127 -127 -127 -48 0 c-67 0 -189
27 -277 61 -140 54 -280 152 -369 257 l-43 52 53 -6 c46 -5 58 -3 82 16 l27
21 0 386 c0 419 -1 427 -57 452 -93 42 -170 -20 -255 -208 l-40 -86 6 75 c27
364 291 694 646 808 123 39 146 40 100 4z"/>
<path d="M3460 2366 l0 -66 113 0 c135 0 161 10 165 61 5 56 -12 63 -155 68
l-123 3 0 -66z"/>
<path d="M4812 2325 l-42 -85 85 0 c47 0 85 2 85 5 0 7 -79 165 -83 165 -1 0
-22 -38 -45 -85z"/>
</g>
</svg>
